<svg width="185" height="60" viewBox="0 0 185 60" fill="none" xmlns="http://www.w3.org/2000/svg">
<path opacity="0.5" d="M6.21841 48.3202C14.2426 43.9434 17.89 47.5908 20.8079 43.9434C23.7258 40.296 12.7836 30.7825 34.6982 21.2994C34.6982 21.2994 36.1572 0.843766 66.096 0.0231098C96.0348 -0.797546 88.0105 20.4787 96.0347 25.585C104.059 30.6913 106.278 22.5455 114.272 27.7734C122.265 33.0013 118.648 42.9708 125.214 44.5817C131.779 46.1926 140.411 38.0164 148.587 43.1227C156.763 48.229 156.642 52.6059 160.289 52.6059C163.936 52.6059 171.231 49.5664 175.486 52.6059C179.742 55.6454 185 59.2015 185 59.2015H0.230652C0.230652 59.2015 -1.80579 52.6971 6.21841 48.3202Z" fill="url(#paint0_linear_19_251)"/>
<defs>
<linearGradient id="paint0_linear_19_251" x1="92.4999" y1="0" x2="92.4999" y2="59.6655" gradientUnits="userSpaceOnUse">
<stop stop-color="white" stop-opacity="0.38"/>
<stop offset="1" stop-color="white" stop-opacity="0"/>
</linearGradient>
</defs>
</svg>
