<svg width="266" height="113" viewBox="0 0 266 113" fill="none" xmlns="http://www.w3.org/2000/svg">
<path opacity="0.5" d="M11.6447 91.6944C26.9211 83.3369 33.84 90.29 39.3889 83.3369C44.9377 76.3837 24.1467 58.3671 65.7972 40.3163C65.7972 40.3163 68.5716 1.44017 125.499 0.0358369C182.425 -1.3685 167.149 38.9119 182.426 48.5368C197.702 58.1616 201.881 42.9879 217.157 52.7155C232.433 62.4431 225.48 81.864 237.982 84.6384C250.484 87.4128 267.131 72.1364 282.51 81.864C297.889 91.5916 297.786 99.9148 304.74 99.9148C311.693 99.9148 325.565 94.366 333.888 99.9148C342.211 105.464 351.939 112.417 351.939 112.417H0.512726C0.512726 112.417 -3.63177 99.9149 11.6447 91.6944Z" fill="url(#paint0_linear_12_16673)"/>
<defs>
<linearGradient id="paint0_linear_12_16673" x1="175.969" y1="0" x2="175.969" y2="113.298" gradientUnits="userSpaceOnUse">
<stop stop-color="white" stop-opacity="0.38"/>
<stop offset="1" stop-color="white" stop-opacity="0"/>
</linearGradient>
</defs>
</svg>
