<svg width="213" height="78" viewBox="0 0 213 78" fill="none" xmlns="http://www.w3.org/2000/svg">
<path d="M-22.7982 63.6635C-12.2149 57.8969 -7.40428 62.7024 -3.55582 57.8969C0.292633 53.0914 -14.1392 40.557 14.7643 28.0626C14.7643 28.0626 16.6886 1.11169 56.1754 0.030448C95.6622 -1.05079 85.0789 26.9814 95.6621 33.7091C106.245 40.4369 109.172 29.7045 119.715 36.5924C130.258 43.4803 125.488 56.6155 134.147 58.7379C142.806 60.8603 154.191 50.0879 164.974 56.8156C175.758 63.5434 175.598 69.31 180.408 69.31C185.219 69.31 194.84 65.3054 200.452 69.31C206.065 73.3146 213 78 213 78H-30.6955C-30.6955 78 -33.3814 69.4302 -22.7982 63.6635Z" fill="url(#paint0_linear_12_16669)"/>
<defs>
<linearGradient id="paint0_linear_12_16669" x1="91" y1="0" x2="91" y2="78.6112" gradientUnits="userSpaceOnUse">
<stop stop-color="white" stop-opacity="0.38"/>
<stop offset="1" stop-color="white" stop-opacity="0"/>
</linearGradient>
</defs>
</svg>
