<svg width="240" height="104" viewBox="0 0 240 104" fill="none" xmlns="http://www.w3.org/2000/svg">
<path opacity="0.5" d="M315.214 84.8291C301.063 77.0973 294.654 83.5299 289.514 77.0973C284.374 70.6647 303.633 53.9971 265.052 37.2977C265.052 37.2977 262.482 1.33234 209.751 0.0331538C157.02 -1.26604 171.17 35.9985 157.02 44.9027C142.869 53.8069 138.999 39.7694 124.848 48.7686C110.698 57.7679 117.138 75.7347 105.558 78.3014C93.9772 80.8681 78.5576 66.7354 64.3119 75.7347C50.0662 84.734 50.1613 92.4341 43.7206 92.4341C37.2799 92.4341 24.4303 87.3007 16.7205 92.4341C9.0107 97.5674 0 104 0 104H325.525C325.525 104 329.364 92.4341 315.214 84.8291Z" fill="url(#paint0_linear_12_16666)"/>
<defs>
<linearGradient id="paint0_linear_12_16666" x1="163" y1="0" x2="163" y2="104.815" gradientUnits="userSpaceOnUse">
<stop stop-color="white" stop-opacity="0.38"/>
<stop offset="1" stop-color="white" stop-opacity="0"/>
</linearGradient>
</defs>
</svg>
