<svg width="287" height="92" viewBox="0 0 287 92" fill="none" xmlns="http://www.w3.org/2000/svg">
<path opacity="0.5" d="M277.336 74.957C264.888 68.1674 259.23 73.8254 254.704 68.1674C250.177 62.5094 267.151 47.7515 233.156 33.0408C233.156 33.0408 230.893 1.3089 184.45 0.0358493C138.008 -1.2372 150.455 31.7677 138.008 39.6889C125.56 47.6101 122.118 34.9739 109.718 43.0836C97.3174 51.1934 102.928 66.6586 92.7438 69.1576C82.5595 71.6565 69.1689 58.9732 56.4856 66.8943C43.8022 74.8155 43.9909 81.6051 38.3329 81.6051C32.6749 81.6051 21.3589 76.8902 14.7579 81.6051C8.15696 86.3201 0 91.8367 0 91.8367H286.624C286.624 91.8367 289.783 81.7466 277.336 74.957Z" fill="url(#paint0_linear_12_16679)"/>
<defs>
<linearGradient id="paint0_linear_12_16679" x1="143.491" y1="0" x2="143.491" y2="92.5563" gradientUnits="userSpaceOnUse">
<stop stop-color="white" stop-opacity="0.38"/>
<stop offset="1" stop-color="white" stop-opacity="0"/>
</linearGradient>
</defs>
</svg>
