<svg width="129" height="758" viewBox="0 0 129 758" fill="none" xmlns="http://www.w3.org/2000/svg">
<path d="M-63.177 757.804H129C125.321 734.348 110.203 738.484 108.193 702.251C107.204 683.918 124.177 661.264 122.693 637.222C121.487 617.408 101.917 597.099 100.402 574.415C99.0419 553.953 115.86 531.206 114.129 509.201C112.583 488.368 92.735 468.369 91.0036 446.703C89.2723 425.592 105.627 402.661 103.71 381.273C101.794 359.884 81.5741 340.286 79.4408 319.238C77.2458 297.633 93.075 274.27 90.6635 253.53C88.0666 231.555 67.2907 212.543 64.4773 192.266C61.3856 169.705 76.071 145.601 72.6083 126.126C68.4037 102.269 46.1438 84.9855 41.4445 67.4861C32.726 34.6784 33.8081 3.04358 23.5129 0.975743C12.5066 -1.21555 10.0024 29.802 1.68584 64.4306C-2.51881 81.8375 -24.284 99.4912 -27.8394 123.349C-30.7456 142.7 -15.4728 166.218 -17.8843 188.686C-20.1412 208.809 -40.3915 228.16 -42.3702 250.042C-44.2252 270.597 -27.7776 293.251 -29.3853 314.855C-30.962 335.749 -50.6249 355.687 -51.9852 376.921C-53.3455 398.155 -36.527 420.438 -37.5472 441.394C-38.753 462.999 -58.0449 483.183 -59.0342 503.862C-60.0853 525.744 -42.803 547.811 -43.5759 568.088C-44.5034 590.587 -63.548 611.297 -64.2591 630.833C-65.0938 654.69 -47.5333 676.727 -48.0898 694.874C-49.2646 734.318 -67.3508 726.139 -68 757.866L-63.177 757.804Z" fill="#01C29A"/>
</svg>
