<svg width="94" height="581" viewBox="0 0 94 581" fill="none" xmlns="http://www.w3.org/2000/svg">
<path d="M3.60029 580.616H149.869C147.055 562.652 135.567 565.81 134.028 537.844C133.275 523.794 146.204 506.422 145.091 487.997C144.142 472.83 129.25 457.234 128.104 439.862C127.057 424.201 139.789 406.796 138.545 389.884C137.367 373.927 122.18 358.594 120.936 342.012C119.693 325.429 132.097 308.222 130.755 291.837C129.413 275.451 113.899 260.415 112.296 244.293C110.594 227.678 122.638 209.812 120.805 193.954C118.842 177.075 103.033 162.532 100.873 147.003C98.4838 129.696 109.71 111.206 107.092 96.301C103.819 78.0076 86.9302 64.7482 83.3626 51.2584C76.8167 26.1214 77.5695 1.90563 69.7144 0.326343C61.3356 -1.38455 59.4372 22.3706 53.0876 48.9553C49.8146 62.116 33.4498 75.8031 30.6351 94.0966C28.4095 108.935 40.1267 126.998 38.1956 144.173C36.4937 159.604 21.078 174.41 19.5724 191.19C18.165 206.95 30.6678 224.355 29.3913 240.839C28.1149 257.323 13.2556 272.161 12.2082 288.415C11.1609 304.668 24.0891 321.744 23.2054 337.768C22.3217 353.791 7.59328 369.781 6.8405 385.64C6.05499 402.42 19.2124 419.331 18.5578 434.993C17.8705 452.233 3.37115 467.894 2.84747 483.095C2.19288 501.388 15.5466 518.267 15.1539 532.184C14.2374 562.388 0.490946 556.137 0 580.451L3.60029 580.616Z" fill="#01C29A"/>
</svg>
