<svg width="362" height="164" viewBox="0 0 362 164" fill="none" xmlns="http://www.w3.org/2000/svg">
<path d="M353.185 17.3617C351.844 26.9423 353.974 37.091 350.028 46.2769C348.356 50.4125 345.375 53.8862 341.541 56.1666C337.707 58.4469 333.232 59.4083 328.8 58.9037C319.677 56.8203 311.201 50.3333 301.416 52.464C293.524 53.1743 288.521 59.6139 283.77 65.0908C281.718 60.0085 279.887 54.5001 275.547 50.8857C270.717 46.419 264.056 44.888 257.617 45.1563H257.538L253.197 45.5193C244.864 47.0977 235.441 45.5193 230.327 38.0854C228.815 34.5735 227.866 30.8447 227.518 27.037C227.518 26.7687 227.518 26.4846 227.518 26.2162C227.518 25.5849 227.486 24.9536 227.423 24.3222C227.423 24.1328 227.423 23.9276 227.423 23.7225C227.423 23.2174 227.423 22.7123 227.423 22.1441C227.423 21.5759 227.423 21.3549 227.423 20.9446V20.1238C227.423 19.4767 227.518 18.8138 227.581 18.1667C227.895 15.1345 228.423 12.1282 229.159 9.17016C229.948 6.05765 230.923 2.9954 232.079 0L226.097 5.72938C220.48 12.1982 216.295 19.7825 213.818 27.984C211.07 36.7933 210.294 46.0992 211.545 55.2419C211.981 57.173 212.551 59.0715 213.249 60.9239C216.988 70.7542 223.941 79.0312 232.979 84.4096C232.979 84.4096 233.2 84.5675 233.61 84.8042L234.21 85.1357L234.762 85.4356C236.86 86.418 239.063 87.1593 241.328 87.6452C243.129 88.0616 244.952 88.3725 246.789 88.5765L246.679 88.7027C248.446 88.8448 250.214 88.9395 251.998 88.9868H253.986C256.405 88.9999 258.822 88.8311 261.215 88.4818C265.714 88.024 272.264 88.6554 273.842 93.7061C275.262 105.828 269.865 119.386 258.611 125.083C251.114 129.092 242.37 129.661 234.052 129.029C230.89 128.551 227.768 127.845 224.708 126.914L223.761 126.63C222.956 126.362 222.183 126.094 221.331 125.794L219.752 125.383C212.912 122.326 206.844 117.774 201.996 112.062L201.507 110.673L200.591 108.116L197.435 98.2359C193.283 81.6318 193.694 63.3704 181.651 50.0807L179.378 47.3502C179.378 47.2239 179.378 47.0977 179.378 46.9714C178.873 46.4506 178.352 45.9613 177.8 45.3931L177.689 45.2668H177.611C169.896 37.4925 160.796 31.2294 150.779 26.8002L148.238 25.4586C148.23 25.3799 148.23 25.3006 148.238 25.2219C147.512 24.9062 146.77 24.6379 146.028 24.338L145.649 24.1328H145.57C128.788 17.3408 110.959 13.4963 92.8695 12.7688H90.1863H89.7917C66.4323 12.8635 41.9996 17.6458 23.8486 33.2872L22.8385 34.4394L21.8757 35.5284C8.15994 51.7222 2.399 73.2034 0.489205 94.0375C0.347154 97.6361 -0.536716 101.393 0.489205 104.928C8.58609 112.504 18.7506 117.555 28.8993 121.785C30.0042 122.242 31.5509 122.874 33.4765 123.6C45.5848 128.013 58.2389 130.753 71.0884 131.744C97.5887 134.017 116.355 130.86 116.513 132.123C116.513 132.612 113.83 133.701 101.156 136.085C98.1727 136.353 64.7435 139.083 43.136 134.048C34.2657 131.981 24.3064 128.635 24.3064 128.635C18.4034 126.646 13.3842 124.689 9.46997 123.111C16.3989 131.681 26.5318 136.747 36.5701 140.993C51.3655 146.726 66.6999 150.956 82.3419 153.62C82.3419 153.62 99.1986 157.976 137.757 160.817L143.361 161.417L146.517 161.669C158.213 161.969 169.877 162.853 181.572 163.027C181.569 162.99 181.569 162.953 181.572 162.916L185.313 163.011C185.313 163.011 234.967 167.304 255.959 150.447C256.48 150.116 257.001 149.785 257.538 149.437L257.348 149.327C257.98 148.759 258.579 148.159 259.148 147.543L261.073 145.839C274.536 133.212 280.013 114.556 284.338 97.21C285.616 91.4964 293.177 91.7963 297.438 93.8008C305.914 97.6519 315.258 100.272 324.633 98.5358C341.995 96.7523 356.326 82.5472 360.161 65.8641C364.139 49.4967 359.893 32.4822 353.185 17.3617ZM86.3351 109.079C90.7252 110.222 95.1935 111.039 99.7037 111.526C103.776 111.963 107.873 112.127 111.967 112.015C96.9574 126.267 86.3351 109.079 86.3351 109.079Z" fill="#01C29A"/>
</svg>
