<svg width="611" height="269" viewBox="0 0 611 269" fill="none" xmlns="http://www.w3.org/2000/svg">
<path d="M478.185 17.3617C476.844 26.9423 478.974 37.091 475.028 46.2769C473.356 50.4125 470.375 53.8862 466.541 56.1666C462.707 58.4469 458.232 59.4083 453.8 58.9037C444.677 56.8203 436.201 50.3333 426.416 52.464C418.524 53.1743 413.521 59.6139 408.77 65.0908C406.718 60.0085 404.887 54.5001 400.547 50.8857C395.717 46.419 389.056 44.888 382.617 45.1563H382.538L378.197 45.5193C369.864 47.0977 360.441 45.5193 355.327 38.0854C353.815 34.5735 352.866 30.8447 352.518 27.037C352.518 26.7687 352.518 26.4846 352.518 26.2162C352.518 25.5849 352.486 24.9536 352.423 24.3222C352.423 24.1328 352.423 23.9276 352.423 23.7225C352.423 23.2174 352.423 22.7123 352.423 22.1441C352.423 21.5759 352.423 21.3549 352.423 20.9446V20.1238C352.423 19.4767 352.518 18.8138 352.581 18.1667C352.895 15.1345 353.423 12.1282 354.159 9.17016C354.948 6.05765 355.923 2.9954 357.079 0L351.097 5.72938C345.48 12.1982 341.295 19.7825 338.818 27.984C336.07 36.7933 335.294 46.0992 336.545 55.2419C336.981 57.173 337.551 59.0715 338.249 60.9239C341.988 70.7542 348.941 79.0312 357.979 84.4096C357.979 84.4096 358.2 84.5675 358.61 84.8042L359.21 85.1357L359.762 85.4356C361.86 86.418 364.063 87.1593 366.328 87.6452C368.129 88.0616 369.952 88.3725 371.789 88.5765L371.679 88.7027C373.446 88.8448 375.214 88.9395 376.998 88.9868H378.986C381.405 88.9999 383.822 88.8311 386.215 88.4818C390.714 88.024 397.264 88.6554 398.842 93.7061C400.262 105.828 394.865 119.386 383.611 125.083C376.114 129.092 367.37 129.661 359.052 129.029C355.89 128.551 352.768 127.845 349.708 126.914L348.761 126.63C347.956 126.362 347.183 126.094 346.331 125.794L344.752 125.383C337.912 122.326 331.844 117.774 326.996 112.062L326.507 110.673L325.591 108.116L322.435 98.2359C318.283 81.6318 318.694 63.3704 306.651 50.0807L304.378 47.3502C304.378 47.2239 304.378 47.0977 304.378 46.9714C303.873 46.4506 303.352 45.9613 302.8 45.3931L302.689 45.2668H302.611C294.896 37.4925 285.796 31.2294 275.779 26.8002L273.238 25.4586C273.23 25.3799 273.23 25.3006 273.238 25.2219C272.512 24.9062 271.77 24.6379 271.028 24.338L270.649 24.1328H270.57C253.788 17.3408 235.959 13.4963 217.869 12.7688H215.186H214.792C191.432 12.8635 167 17.6458 148.849 33.2872L147.839 34.4394L146.876 35.5284C133.16 51.7222 127.399 73.2034 125.489 94.0375C125.347 97.6361 124.463 101.393 125.489 104.928C133.586 112.504 143.751 117.555 153.899 121.785C155.004 122.242 156.551 122.874 158.477 123.6C170.585 128.013 183.239 130.753 196.088 131.744C222.589 134.017 241.355 130.86 241.513 132.123C241.513 132.612 238.83 133.701 226.156 136.085C223.173 136.353 189.743 139.083 168.136 134.048C159.266 131.981 149.306 128.635 149.306 128.635C143.403 126.646 138.384 124.689 134.47 123.111C141.399 131.681 151.532 136.747 161.57 140.993C176.365 146.726 191.7 150.956 207.342 153.62C207.342 153.62 224.199 157.976 262.757 160.817L268.361 161.417L271.517 161.669C283.213 161.969 294.877 162.853 306.572 163.027C306.569 162.99 306.569 162.953 306.572 162.916L310.313 163.011C310.313 163.011 359.967 167.304 380.959 150.447C381.48 150.116 382.001 149.785 382.538 149.437L382.348 149.327C382.98 148.759 383.579 148.159 384.148 147.543L386.073 145.839C399.536 133.212 405.013 114.556 409.338 97.21C410.616 91.4964 418.177 91.7963 422.438 93.8008C430.914 97.6519 440.258 100.272 449.633 98.5358C466.995 96.7523 481.326 82.5472 485.161 65.8641C489.139 49.4967 484.893 32.4822 478.185 17.3617ZM211.335 109.079C215.725 110.222 220.193 111.039 224.704 111.526C228.776 111.963 232.873 112.127 236.967 112.015C221.957 126.267 211.335 109.079 211.335 109.079Z" fill="#01C29A"/>
<path d="M14.1 254V218.9H0.72V211.28H36.96V218.9H23.58V254H14.1ZM73.9158 254V211.28H83.0958V254H73.9158ZM44.9358 254V211.28H54.1158V254H44.9358ZM47.9358 236V228.62H79.4358V236H47.9358ZM94.6936 254V211.28H124.154V218.54H103.874V228.62H122.894V235.94H103.874V246.74H124.154V254H94.6936Z" fill="white"/>
<path d="M174.307 254.54C169.747 254.54 165.807 253.66 162.487 251.9C159.207 250.14 156.667 247.62 154.867 244.34C153.107 241.06 152.227 237.14 152.227 232.58C152.227 228.1 153.107 224.22 154.867 220.94C156.667 217.66 159.187 215.14 162.427 213.38C165.667 211.62 169.487 210.74 173.887 210.74C176.927 210.74 179.787 211.16 182.467 212C185.147 212.84 187.347 214.02 189.067 215.54L186.067 222.26C184.027 220.82 182.067 219.78 180.187 219.14C178.347 218.5 176.327 218.18 174.127 218.18C170.007 218.18 166.907 219.38 164.827 221.78C162.787 224.18 161.767 227.78 161.767 232.58C161.767 237.5 162.827 241.2 164.947 243.68C167.107 246.12 170.367 247.34 174.727 247.34C176.247 247.34 177.767 247.22 179.287 246.98C180.847 246.7 182.347 246.3 183.787 245.78L181.747 248.84V236.96H173.347V230.42H190.207V251.36C188.807 252.04 187.227 252.62 185.467 253.1C183.747 253.58 181.927 253.94 180.007 254.18C178.127 254.42 176.227 254.54 174.307 254.54ZM201.194 254V211.28H220.214C225.214 211.28 228.994 212.38 231.554 214.58C234.114 216.74 235.394 219.82 235.394 223.82C235.394 227.62 234.074 230.68 231.434 233C228.794 235.28 225.114 236.42 220.394 236.42L225.314 235.4C226.794 235.4 228.114 235.84 229.274 236.72C230.474 237.6 231.414 238.94 232.094 240.74L237.254 254H227.354L221.894 239.78C221.454 238.62 220.754 237.84 219.794 237.44C218.834 237 217.734 236.78 216.494 236.78H210.434V254H201.194ZM210.374 229.64H218.834C221.514 229.64 223.474 229.18 224.714 228.26C225.954 227.34 226.574 225.94 226.574 224.06C226.574 222.14 225.954 220.74 224.714 219.86C223.514 218.94 221.554 218.48 218.834 218.48H210.374V229.64ZM246.674 254V211.28H276.134V218.54H255.854V228.62H274.874V235.94H255.854V246.74H276.134V254H246.674ZM285.592 254V211.28H315.052V218.54H294.772V228.62H313.792V235.94H294.772V246.74H315.052V254H285.592ZM324.51 254V211.28H331.41L354.45 240.68L352.71 241.82V211.28H361.53V254H354.57L331.65 224.72L333.27 223.46V254H324.51ZM385.096 254L369.916 211.28H379.456L390.436 244.34H388.036L399.616 211.28H406.156L417.256 244.34H415.156L426.316 211.28H435.256L420.076 254H412.576L401.896 223.64H403.396L392.596 254H385.096ZM472.635 254V211.28H481.815V254H472.635ZM443.655 254V211.28H452.835V254H443.655ZM446.655 236V228.62H478.155V236H446.655ZM497.912 254H488.492L508.112 211.28H515.672L535.292 254H525.992L510.872 218.72H513.152L497.912 254ZM497.372 244.52L500.972 237.38H522.332L525.872 244.52H497.372ZM541.94 254V211.28H551.3V246.38H570.38V254H541.94ZM579.1 254V211.28H608.56V218.54H588.28V228.62H607.3V235.94H588.28V246.74H608.56V254H579.1Z" fill="#01C29A"/>
</svg>
